<?xml version="1.0" encoding="utf-8"?>
<!-- Generator: Adobe Illustrator 27.3.1, SVG Export Plug-In . SVG Version: 6.00 Build 0)  -->
<svg version="1.1" id="Camada_1" xmlns="http://www.w3.org/2000/svg" xmlns:xlink="http://www.w3.org/1999/xlink" x="0px" y="0px"
	 viewBox="0 0 600 600" style="enable-background:new 0 0 600 600;" xml:space="preserve">
<style type="text/css">
	.st0{fill:#730071;}
	.st1{fill:#FFC700;}
	.st2{fill:#FFFFFF;}
</style>
<g>
	<circle class="st1" cx="300" cy="300" r="300"/>
	<g>
		<path d="M243.93,299.97c-10.14-12.01-19.62-24.37-28.23-37.38c-8.88-13.42-16.46-27.54-22.2-42.61
			c-3.55-9.33-6.42-18.88-8.23-28.71c-0.94-5.12-1.56-10.29-2.27-15.44c-0.11-0.77-0.36-0.97-1.11-0.96
			c-3.01,0.05-5.98,0.06-8.84-1.33c-5.04-2.44-7.75-6.52-8.06-11.92c-0.29-5,1.94-9.06,6.07-12.01c2.73-1.95,5.86-2.28,9.05-2.47
			c0.44-0.03,0.87-0.02,1.31-0.02c79.14,0,158.29,0,237.43,0.02c1.93,0,3.9,0.18,5.79,0.59c5.7,1.25,10.06,6.45,10.39,12.62
			c0.28,5.14-2.58,10.66-8.01,13.16c-2.76,1.27-5.57,1.45-8.48,1.32c-1.11-0.05-1.59,0.14-1.67,1.42
			c-0.55,8.36-2.35,16.5-4.39,24.61c-5.14,20.44-14,39.23-25.17,56.98c-7.91,12.57-16.75,24.46-26.17,35.93
			c-1.49,1.81-2.93,3.67-4.47,5.43c-0.56,0.64-0.45,1.01,0.02,1.6c5.73,7.22,11.61,14.34,17.12,21.74
			c10.16,13.62,19.3,27.89,26.58,43.31c4.45,9.44,8.22,19.12,11.04,29.15c1.62,5.76,2.71,11.68,3.85,17.56
			c0.75,3.86,1.17,7.77,1.69,11.67c0.1,0.74,0.41,0.89,1.09,0.88c3.14-0.07,6.23,0.03,9.18,1.47c5.42,2.65,8.28,8.33,7.76,13.41
			c-0.67,6.57-5.15,11.46-11.03,12.41c-1.76,0.28-3.55,0.46-5.33,0.46c-79.22,0.02-158.45,0.02-237.67,0.01
			c-3.43,0-6.82-0.33-9.78-2.4c-4.2-2.94-6.46-7.02-6.19-12.07c0.3-5.41,3.02-9.49,8.05-11.93c2.84-1.37,5.83-1.41,8.84-1.4
			c0.78,0,1.06-0.23,1.13-0.97c0.85-8.92,2.55-17.69,4.82-26.35c2.32-8.9,5.42-17.52,9.07-25.95c6.77-15.65,15.41-30.24,25.48-43.94
			c6.59-8.96,13.58-17.63,20.39-26.43C243.11,300.96,243.49,300.51,243.93,299.97z M389.53,425.1c-0.35-2.08-0.76-3.98-0.97-5.91
			c-0.59-5.31-1.88-10.47-3.25-15.61c-2.05-7.65-4.78-15.06-7.99-22.29c-5.01-11.3-11.14-21.99-18.27-32.05
			c-5.93-8.36-12.16-16.51-18.44-24.62c-4.09-5.28-8.47-10.33-12.77-15.44c-4.5-5.35-4.65-12.79-0.04-18.26
			c0.54-0.64,1.08-1.28,1.6-1.93c6.7-8.28,13.56-16.44,20.07-24.87c8.49-10.98,16.18-22.52,22.68-34.82
			c4.41-8.34,8.27-16.92,11.06-25.93c1.78-5.76,3.26-11.62,4.6-17.5c0.82-3.58,1.12-7.28,1.65-10.91c-59.66,0-119.3,0-179.05,0
			c0.17,0.91,0.32,1.68,0.45,2.45c0.91,5.08,1.58,10.22,2.76,15.23c2,8.44,4.88,16.61,8.32,24.56
			c5.93,13.71,13.68,26.38,22.33,38.49c4.78,6.69,9.89,13.15,14.99,19.61c4.07,5.14,8.36,10.11,12.54,15.17
			c1.56,1.88,2.93,3.89,3.42,6.33c0.91,4.6-0.03,8.73-3.09,12.38c-4.67,5.58-9.31,11.18-13.9,16.83
			c-11.67,14.37-22.41,29.38-31.01,45.84c-4.38,8.39-8.16,17.05-10.88,26.14c-1.59,5.32-2.98,10.71-4.19,16.13
			c-0.8,3.58-1.11,7.28-1.65,10.96C270.14,425.1,329.77,425.1,389.53,425.1z"/>
		<path class="st0" d="M299.99,414.67c-22.55,0-45.11,0-67.66,0c-1.92,0-3.82-0.21-5.47-1.34c-3.13-2.14-3.84-6.09-1.75-9.64
			c6.61-11.22,14.53-21.43,23.63-30.74c8.52-8.73,17.83-16.52,27.46-23.96c4.34-3.36,8.41-7.05,11.52-11.66
			c3.22-4.78,5.21-9.97,5.37-15.8c0.08-2.9,1.23-5.23,3.88-6.65c3.97-2.12,8.59,0.38,9.67,4.66c0.13,0.5,0.22,1.02,0.23,1.53
			c0.21,9.36,4.52,16.81,11.13,22.95c4.21,3.91,8.9,7.3,13.38,10.92c12.91,10.43,24.77,21.9,34.62,35.33
			c3.14,4.29,5.96,8.83,8.79,13.33c2.18,3.47,1.57,7.11-1.39,9.52c-1.53,1.24-3.4,1.46-5.28,1.54c-1.74,0.07-3.49,0.02-5.24,0.02
			C341.92,414.67,320.95,414.67,299.99,414.67z"/>
		<path class="st0" d="M299.97,216.87c11.04,0,22.07-0.02,33.11,0.03c1.16,0,2.38,0.22,3.48,0.62c3.54,1.27,5.3,4.6,4.25,8.2
			c-1.61,5.51-4.06,10.67-6.63,15.79c-4.89,9.75-10.95,18.7-17.68,27.24c-2.23,2.82-4.24,5.87-5.97,9.02
			c-2.54,4.63-3.5,9.73-3.65,15.02c-0.1,3.55-2.33,6.11-5.58,6.81c-3.62,0.77-7.37-1.67-7.97-5.37c-0.35-2.15-0.25-4.38-0.63-6.52
			c-0.9-5.09-2.59-9.92-5.66-14.14c-2.55-3.5-5.22-6.91-7.82-10.38c-4.96-6.63-9.31-13.63-13.09-21.01
			c-2.6-5.06-4.96-10.21-6.75-15.61c-0.98-2.95-0.64-5.69,1.85-7.82c1.57-1.34,3.46-1.87,5.52-1.87
			C277.82,216.87,288.9,216.87,299.97,216.87z"/>
	</g>
</g>
</svg>
