<?xml version="1.0" encoding="utf-8"?>
<!-- Generator: Adobe Illustrator 27.3.1, SVG Export Plug-In . SVG Version: 6.00 Build 0)  -->
<svg version="1.1" id="Camada_1" xmlns="http://www.w3.org/2000/svg" xmlns:xlink="http://www.w3.org/1999/xlink" x="0px" y="0px"
	 viewBox="0 0 600 600" style="enable-background:new 0 0 600 600;" xml:space="preserve">
<style type="text/css">
	.st0{fill:#730071;}
	.st1{fill:#FFC700;}
	.st2{fill:#FFFFFF;}
</style>
<g>
	<circle class="st1" cx="300" cy="300" r="300"/>
	<g>
		<path d="M260.52,232.38c-1.95,0-3.54-0.43-4.74-1.27c-3.24-2.28-3.88-7.98-3.51-11.25c0.64-5.75,1.5-11.56,2.32-17.17
			c0.84-5.69,1.7-11.58,2.34-17.37c0.17-1.52-0.74-4.01-1.86-5.12c-4.22-4.2-8.68-8.33-12.99-12.33c-4.08-3.79-8.3-7.7-12.34-11.69
			c-1.53-1.51-5.55-6.71-4.03-10.66c1.33-3.45,5.76-6.27,9.28-7c5.7-1.19,11.52-2.18,17.14-3.13c5.64-0.95,11.47-1.94,17.13-3.13
			c1.77-0.37,4.1-2.11,4.89-3.64c2.78-5.4,5.4-11.04,7.94-16.49c2.28-4.91,4.64-9.98,7.13-14.91c1.16-2.31,4.81-7.06,8.67-7.06
			c0.11,0,0.22,0,0.34,0.01c3.78,0.27,7.67,3.7,9.42,6.79c2.83,5,5.49,10.16,8.07,15.15c2.67,5.16,5.42,10.5,8.33,15.6
			c0.82,1.44,3.28,3.07,5.06,3.35c5.53,0.88,11.22,1.54,16.72,2.17c5.44,0.63,11.06,1.28,16.59,2.15c3.41,0.53,9,2.71,10.46,6.51
			c1.47,3.83-1.59,9.22-3.86,11.72c-7.19,7.91-15.01,15.88-23.24,23.71c-2.44,2.32-2.91,4.2-2.05,8.05
			c1.89,8.42,3.46,16.7,5.11,25.47c0.65,3.46,1.31,6.94,1.99,10.44l0.05,0.23l0.01,0.24c0.09,2.67-0.79,5.1-2.47,6.83
			c-1.66,1.72-4,2.66-6.6,2.66c-1.85,0-3.75-0.46-5.66-1.38c-8.85-4.26-20.47-9.92-31.86-15.93c-1.28-0.67-2.3-0.99-3.21-0.99
			c-0.96,0-2.02,0.36-3.32,1.13c-10.92,6.44-20.78,11.88-30.13,16.63C265.59,231.74,262.87,232.38,260.52,232.38z M256.57,156.24
			c5,4.74,9.71,9.21,14.49,13.47c4.31,3.84,5.91,8.14,5.02,13.51c-1.09,6.62-2,13.3-2.97,20.36c-0.15,1.12-0.31,2.25-0.46,3.4
			c0.93-0.5,1.85-1,2.76-1.49c6.06-3.26,11.78-6.35,17.35-9.68c2.74-1.64,5.38-2.44,8.05-2.44c2.46,0,4.93,0.67,7.57,2.06
			c5.64,2.97,11.44,5.81,17.59,8.82c0.99,0.48,1.99,0.97,3,1.47c-0.19-0.98-0.37-1.95-0.55-2.91c-1.22-6.47-2.37-12.57-3.72-18.58
			c-0.99-4.41-1.59-10.89,4.6-16.29c4.75-4.15,9.47-8.51,14.04-12.73c1.16-1.07,2.32-2.14,3.48-3.21c-1.68-0.25-3.36-0.52-5.01-0.77
			c-5.89-0.93-11.98-1.88-17.92-2.17c-7.39-0.36-11.95-3.54-15.25-10.63c-2.48-5.34-5.34-10.61-8.36-16.19
			c-0.48-0.88-0.96-1.76-1.44-2.66c-0.45,0.93-0.89,1.84-1.33,2.74c-2.66,5.48-5.17,10.65-7.19,15.85
			c-2.99,7.7-8.01,11.5-16.28,12.34c-5.62,0.57-11.29,1.65-17.29,2.81c-0.9,0.17-1.82,0.35-2.74,0.52
			C254.89,154.65,255.74,155.45,256.57,156.24z"/>
		<path d="M347.87,221.85c0.18,5.27-4.67,8.08-10.42,5.31c-10.66-5.14-21.29-10.36-31.76-15.88c-3.47-1.83-6.06-1.79-9.46,0.21
			c-9.83,5.79-19.8,11.37-29.97,16.54c-2.52,1.28-6.87,1.96-8.77,0.63c-1.87-1.31-2.57-5.64-2.25-8.47
			c1.29-11.54,3.39-23,4.66-34.54c0.27-2.44-0.97-5.84-2.73-7.58c-8.25-8.21-17.05-15.86-25.34-24.03
			c-1.89-1.87-4.04-5.62-3.34-7.45c0.9-2.33,4.37-4.57,7.09-5.14c11.37-2.37,22.92-3.87,34.28-6.26c2.61-0.55,5.73-2.85,6.94-5.21
			c5.32-10.32,9.85-21.05,15.08-31.42c1.2-2.37,4.17-5.55,6.11-5.41c2.5,0.18,5.64,2.84,7.02,5.28
			c5.72,10.11,10.66,20.67,16.41,30.77c1.3,2.29,4.56,4.41,7.19,4.83c11.05,1.76,22.25,2.59,33.31,4.32
			c3.01,0.47,7.24,2.33,8.12,4.62c0.84,2.19-1.26,6.41-3.28,8.63c-7.39,8.13-15.12,15.98-23.08,23.55
			c-3.47,3.3-3.91,6.42-2.91,10.88C343.42,197.77,345.5,209.65,347.87,221.85z M351.31,151.96c-0.4-0.84-0.79-1.68-1.19-2.51
			c-8.69-1.19-17.35-2.96-26.07-3.38c-6.62-0.32-10.04-3.24-12.67-8.9c-3.65-7.84-7.99-15.36-12.68-24.23
			c-4.22,9.02-8.16,16.4-11.16,24.15c-2.57,6.63-6.7,9.72-13.78,10.44c-8.35,0.84-16.6,2.77-26.09,4.44
			c7.89,7.4,14.51,13.85,21.4,19.99c3.38,3.01,4.81,6.21,4.06,10.79c-1.57,9.5-2.76,19.07-4.26,29.72
			c9.05-4.96,17.4-9.26,25.44-14.07c4.41-2.64,8.25-2.63,12.69-0.3c8.15,4.29,16.48,8.24,26.07,13c-1.95-10-3.47-18.8-5.42-27.51
			c-1.18-5.27-0.67-9.61,3.65-13.37C338.08,164.27,344.65,158.06,351.31,151.96z"/>
		<path d="M153.95,378.84c-0.49,0-0.96-0.07-1.4-0.2c-4.03-1.2-6.92-6.18-7.89-9.24c-1.71-5.4-3.22-10.94-4.68-16.29
			c-1.49-5.46-3.03-11.11-4.77-16.55c-0.54-1.68-2.56-3.82-4.24-4.48c-5.29-2.08-10.8-3.97-16.13-5.8
			c-5.08-1.74-10.32-3.55-15.44-5.53c-3.01-1.17-8.3-4.25-8.98-8.42c-0.66-4.04,3.49-8.71,6.26-10.7
			c9.19-6.6,18.33-12.63,27.17-17.94c3.21-1.93,4.29-3.9,4.27-7.83c-0.06-12.64,0.18-23.18,0.77-33.18
			c0.21-3.5,2.16-8.29,5.38-10.26c0.84-0.52,1.87-0.78,3.05-0.78c2.79,0,6.21,1.47,8.16,2.93c8.4,6.29,17.39,13.43,27.47,21.81
			c1.74,1.45,2.76,1.64,3.6,1.64c0.64,0,1.37-0.14,2.25-0.42c12.61-4.09,23.79-7.42,34.16-10.18c0.94-0.25,1.99-0.38,3.11-0.38
			c3.1,0,5.96,0.94,7.67,2.51c2.69,2.49,2.5,7.86,1.53,10.71c-3.76,11.01-7.82,21.84-12.05,32.2c-1.42,3.48-1.22,5.39,0.88,8.17
			c6.14,8.13,12.28,16.94,19.33,27.75c1.71,2.62,3.66,7.96,1.65,11.17c-1.52,2.42-4.85,4.11-9.89,5.02
			c-1.35,0.24-2.8,0.36-4.56,0.36c-1.08,0-2.18-0.04-3.27-0.09c-1.01-0.04-2.02-0.08-3.03-0.08h-2.89l-0.02-0.42
			c-1.4-0.1-2.8-0.2-4.2-0.3c-5.46-0.4-11.1-0.81-16.6-0.81l-0.81,0c-1.77,0.01-4.44,1.31-5.59,2.72
			c-3.75,4.57-7.38,9.39-10.9,14.06c-3.24,4.3-6.6,8.75-10.06,13.03C161.95,374.67,157.75,378.84,153.95,378.84z M122.52,309.53
			c5.93,2.13,11.52,4.14,17.09,5.71c7.19,2.03,11.36,6.51,13.1,14.12c1.32,5.74,2.94,11.48,4.66,17.55c0.25,0.89,0.51,1.8,0.77,2.71
			c0.63-0.81,1.25-1.6,1.86-2.39c3.86-4.95,7.5-9.63,10.75-14.44c3.86-5.7,8.67-8.36,15.12-8.36c0.92,0,1.91,0.05,2.93,0.16
			c2.8,0.29,5.86,0.43,9.62,0.43h0c2.48,0,4.97-0.06,7.59-0.12c0.87-0.02,1.74-0.04,2.63-0.06c-0.5-0.73-1-1.47-1.5-2.2
			c-3.69-5.39-7.17-10.48-10.9-15.5c-3.97-5.34-4.62-10.3-2.14-16.08c2.49-5.77,4.66-11.77,6.95-18.11
			c0.39-1.07,0.78-2.15,1.18-3.24c-0.63,0.16-1.26,0.33-1.88,0.49c-4.99,1.28-9.71,2.5-13.96,4.36c-3.82,1.67-7.3,2.49-10.63,2.49
			c-5.69,0-10.88-2.42-15.86-7.4c-3.35-3.35-7.18-6.24-11.62-9.6c-0.64-0.49-1.29-0.98-1.95-1.48c-0.02,0.87-0.04,1.72-0.06,2.56
			c-0.12,5.55-0.23,10.34,0.26,15.02c1.11,10.54-2.8,17.77-12.29,22.74c-4.4,2.3-8.61,5.24-13.06,8.34c-0.57,0.4-1.14,0.79-1.72,1.2
			C120.51,308.8,121.52,309.17,122.52,309.53z"/>
		<path d="M214.31,341.54c-8.18-0.5-16.36-1.35-24.53-1.29c-2.69,0.02-6.18,1.73-7.89,3.82c-7.24,8.83-13.79,18.22-20.97,27.1
			c-1.83,2.26-5.59,5.16-7.51,4.59c-2.51-0.75-4.97-4.38-5.89-7.27c-3.43-10.86-5.99-22-9.45-32.85c-0.81-2.55-3.5-5.38-6-6.36
			c-10.4-4.09-21.15-7.3-31.58-11.33c-2.87-1.11-6.71-3.71-7.11-6.11c-0.38-2.31,2.59-6.01,5.05-7.77
			c8.74-6.28,17.73-12.26,26.96-17.8c4.29-2.58,5.75-5.62,5.72-10.42c-0.06-11,0.12-22.01,0.76-32.99c0.16-2.8,1.78-6.55,3.95-7.88
			c1.64-1.01,5.75,0.43,7.84,2c9.32,6.98,18.4,14.27,27.35,21.72c2.8,2.33,5.16,2.92,8.69,1.77c11.25-3.65,22.58-7.09,34-10.13
			c2.46-0.65,6.26-0.14,7.97,1.44c1.42,1.31,1.51,5.26,0.73,7.54c-3.69,10.79-7.68,21.48-11.99,32.04
			c-1.72,4.22-1.61,7.31,1.26,11.11c6.75,8.94,13.09,18.2,19.21,27.58c1.44,2.2,2.68,6.24,1.62,7.93c-1.31,2.09-5.03,3.15-7.88,3.66
			c-3.34,0.6-6.87,0.14-10.32,0.14C214.32,341.7,214.32,341.62,214.31,341.54z M214.32,327.78c-5.34-7.69-10.3-15.2-15.66-22.42
			c-3.12-4.21-3.97-8.05-1.79-13.1c3.63-8.42,6.53-17.14,10.2-26.96c-8.06,2.33-15.31,3.64-21.87,6.52
			c-9.07,3.97-16.16,2.72-23.16-4.28c-5.16-5.16-11.38-9.26-18.61-15.02c0,9.41-0.61,16.76,0.15,23.97
			c0.99,9.39-2.37,15.41-10.7,19.76c-6.68,3.49-12.71,8.24-19.98,13.06c9.65,3.33,17.66,6.5,25.91,8.83
			c6.41,1.81,9.55,5.62,10.99,11.9c1.93,8.4,4.46,16.66,7.06,26.17c6.09-8.01,11.58-14.63,16.38-21.73
			c3.85-5.68,8.34-7.62,15.26-6.89C196.78,328.44,205.22,327.78,214.32,327.78z"/>
		<path d="M446.21,378.76c-3.88,0-7.86-3.63-9.43-5.55c-7.9-9.68-14.16-17.93-19.69-25.94c-2.18-3.16-4.27-4.34-7.71-4.34
			c-0.44,0-0.92,0.02-1.42,0.06c-11.72,0.95-22.35,1.48-32.51,1.6l-0.13,0c-3.46,0-8.27-1.67-10.37-4.76
			c-2.26-3.33,0.02-9.12,1.42-11.25c5.59-8.56,11.94-17.71,19.99-28.8c1.58-2.18,1.76-3.51,0.81-5.89
			c-3.9-9.7-7.85-20.16-12.8-33.92c-1.35-3.76-1.09-7.27,0.75-9.89c1.68-2.39,4.46-3.71,7.82-3.71c0.38,0,0.77,0.02,1.17,0.05
			l0.31,0.03l0.3,0.09c3.08,0.94,6.2,1.84,9.33,2.76c7.44,2.17,15.13,4.41,22.61,7.12c2.15,0.78,3.99,1.16,5.62,1.16
			c2.78,0,5.26-1.14,8.05-3.7c7.83-7.19,16.28-13.5,24.45-19.6c1.75-1.31,4.9-2.71,7.68-2.71c1.12,0,2.1,0.23,2.93,0.69
			c3.25,1.8,5.45,6.39,5.63,9.61c0.55,10.28,0.79,21.43,0.74,35.1c-0.01,3.01,0.87,4.53,3.63,6.26
			c10.52,6.59,19.91,12.82,28.69,19.03c2.57,1.82,5.99,6.06,5.53,9.77c-0.47,3.86-4.86,7.24-7.67,8.32
			c-10.52,4.02-21.45,7.8-32.5,11.23c-3.13,0.97-4.41,2.37-5.26,5.76c-3.28,13.09-6.06,23.11-9,32.49c-0.95,3.03-3.94,8.1-7.92,8.84
			C446.92,378.73,446.57,378.76,446.21,378.76z M414.4,324.42c6.14,0,10.72,2.52,14.4,7.92c3.43,5.03,7.2,9.87,11.19,15
			c0.6,0.77,1.2,1.55,1.81,2.33c0.27-0.97,0.54-1.93,0.81-2.88c1.71-6.07,3.32-11.79,4.6-17.49c1.7-7.54,5.87-12.01,13.13-14.09
			c5.64-1.61,11.25-3.65,17.2-5.8c0.92-0.33,1.84-0.67,2.78-1.01c-0.97-0.65-1.94-1.29-2.89-1.93c-5.82-3.89-11.32-7.56-16.85-11.04
			c-5.02-3.15-7.27-7.38-7.09-13.29c0.2-6.45,0.15-13.04,0.11-19.42c-0.01-1.37-0.02-2.74-0.02-4.1c-1.11,0.87-2.21,1.74-3.32,2.61
			c-5.01,3.93-10.2,7.99-15.1,12.17c-3.25,2.77-6.38,4.06-9.87,4.06c-1.72,0-3.49-0.32-5.42-0.97c-6.11-2.08-12.36-3.89-18.98-5.81
			c-1.06-0.31-2.13-0.62-3.21-0.93c0.38,1.06,0.76,2.11,1.13,3.15c2.21,6.2,4.31,12.06,6.77,17.62c2.73,6.15,2,11.47-2.34,17.25
			c-3.67,4.87-7.12,9.98-10.78,15.39c-0.57,0.84-1.14,1.69-1.73,2.55c0.99-0.03,1.98-0.06,2.95-0.08
			c6.12-0.17,11.91-0.33,17.48-1.01C412.29,324.49,413.39,324.42,414.4,324.42z"/>
		<path d="M383.85,249.4c10.44,3.18,21.29,6.02,31.79,9.83c6.61,2.4,11.42,1.72,16.72-3.14c7.6-6.98,15.93-13.22,24.22-19.4
			c1.95-1.46,5.7-2.72,7.36-1.8c2.1,1.16,3.95,4.6,4.08,7.15c0.62,11.63,0.77,23.29,0.73,34.93c-0.01,4.19,1.55,6.62,5.04,8.81
			c9.68,6.06,19.23,12.34,28.55,18.94c2.14,1.51,4.55,4.8,4.29,6.96c-0.27,2.21-3.32,4.95-5.76,5.88
			c-10.64,4.07-21.44,7.79-32.32,11.16c-4.29,1.33-6.23,3.7-7.28,7.9c-2.72,10.84-5.61,21.66-8.95,32.32
			c-0.85,2.72-3.35,6.37-5.6,6.78c-2.23,0.41-5.79-2.18-7.6-4.4c-6.81-8.35-13.43-16.88-19.54-25.75c-3.1-4.5-6.55-5.99-11.84-5.56
			c-10.74,0.88-21.53,1.46-32.3,1.59c-2.76,0.03-6.58-1.38-7.98-3.44c-1.1-1.62,0.02-5.75,1.45-7.93
			c6.36-9.74,13.07-19.26,19.9-28.68c2.12-2.92,2.55-5.32,1.16-8.77c-4.49-11.18-8.68-22.48-12.76-33.82
			C375.1,253.13,378.09,248.9,383.85,249.4z M456.57,254.59c-0.58-0.25-1.17-0.51-1.75-0.76c-7.22,5.74-14.59,11.32-21.61,17.3
			c-3.85,3.28-7.49,4.19-12.38,2.53c-8.85-3.01-17.89-5.44-28.01-8.46c3.63,9.77,6.38,18.35,10.01,26.54
			c2.45,5.53,1.45,9.65-2,14.23c-5.35,7.1-10.17,14.6-15.93,22.96c9.87-0.43,18.31-0.31,26.61-1.32c6.58-0.8,11.04,0.9,14.81,6.43
			c5.02,7.37,10.73,14.28,16.78,22.23c2.63-9.7,5.16-17.93,7.04-26.3c1.43-6.32,4.66-10.04,11.03-11.86
			c8.32-2.38,16.4-5.59,25.81-8.87c-9.06-5.99-16.83-11.32-24.8-16.33c-4.09-2.57-5.84-5.79-5.69-10.66
			C456.77,273.04,456.57,263.81,456.57,254.59z"/>
		<path d="M286.51,509.82c-8.63-0.16-8.89-8.33-9-11.82c-0.33-10.24-0.62-20.48-0.91-30.72c-0.77-27-1.57-54.92-3.01-82.33
			c-2-38.23-4.82-70.21-12.06-102.01c-1.69-7.45-4.35-14.91-6.91-22.13c-0.53-1.5-1.07-3-1.59-4.5l-0.08-0.22
			c-1.31-3.75-3.51-10.02,3.27-13.55c1.62-0.84,3.22-1.27,4.78-1.27c4.11,0,7.51,3.03,8.89,7.91c1.16,4.11,2.41,8.29,3.62,12.34
			c3.71,12.46,7.56,25.34,9.61,38.38c3.77,23.95,5.82,48.51,7.81,72.27l0.31,3.7c1.26,15.07,2.08,30.28,3.03,47.89
			c0.47,8.76,0.96,17.82,1.56,27.97l0,0.18l0,7.88c0,9.99-0.01,23.89,0.02,37.8c0.01,3.62-0.2,7.36-2.73,9.9
			c-1.54,1.55-3.68,2.33-6.34,2.33L286.51,509.82z"/>
		<path d="M292.83,451.91c0,9.46-0.02,27.57,0.01,45.68c0.01,4.59-0.3,9.33-6.28,9.22c-5.4-0.1-5.91-4.49-6.05-8.91
			c-1.2-37.71-1.95-75.44-3.92-113.11c-1.8-34.4-4.46-68.8-12.13-102.52c-2.08-9.17-5.48-18.05-8.6-26.96
			c-1.37-3.92-2.82-7.74,1.74-10.12c4.9-2.55,8.18,0.5,9.39,4.79c4.72,16.71,10.46,33.31,13.15,50.37
			c3.94,25.06,5.97,50.45,8.1,75.76C290.11,398.46,290.99,420.87,292.83,451.91z"/>
		<path d="M315.29,431.08c-0.22,0-0.44-0.01-0.67-0.02c-8.76-0.45-8.64-7.98-8.57-12.02l0.01-0.64c0.05-3.44,0.04-6.94,0.02-10.34
			c0-0.67,0-1.34-0.01-2.02l-1.23-0.24l0.31-2.76c1.18-10.47,2.32-20.95,3.46-31.43c2.84-26.14,5.78-53.17,9.34-79.69
			c1.27-9.49,4.15-18.8,6.93-27.8c1.13-3.67,2.31-7.47,3.35-11.19c0.67-2.41,1.58-5.68,4-7.35c2.03-1.41,4.31-2.06,6.52-2.7
			c0.84-0.24,1.62-0.47,2.37-0.73l2.87-1l0.96,2.88c0.24,0.71,0.63,1.54,1.05,2.42c1.17,2.46,2.49,5.25,1.42,7.87
			c-13.07,31.93-15.92,66.42-18.68,99.78c-0.37,4.47-0.74,8.93-1.13,13.4c-1.04,11.8-1.75,23.86-2.45,35.52
			c-0.33,5.57-0.66,11.14-1.03,16.71C323.89,423.7,323.41,431.08,315.29,431.08z"/>
		<path d="M308.15,403.39c4.17-37.03,7.83-74.13,12.79-111.06c1.76-13.08,6.63-25.76,10.2-38.59c0.57-2.05,1.28-4.63,2.82-5.69
			c2.32-1.61,5.41-2.09,8.17-3.05c0.92,2.77,3.38,6.16,2.54,8.21c-14.98,36.59-16.63,75.48-20.02,114.04
			c-1.53,17.4-2.33,34.86-3.48,52.29c-0.28,4.24-0.62,8.83-6.39,8.53c-6.17-0.32-5.77-5.2-5.71-9.63c0.07-4.96,0.01-9.92,0.01-14.87
			C308.77,403.51,308.46,403.45,308.15,403.39z"/>
		<path d="M259.79,503.33c-6.05,0-8.2-6.22-9.01-8.56c-9.05-26.23-19.82-45.95-33.89-62.06c-15.72-18.01-33.74-29.2-55.09-34.21
			c-4.05-0.95-6.71-2.55-8.11-4.88c-1.13-1.88-1.38-4.08-0.73-6.54c0.63-2.41,2.46-4.03,4.39-5.75c0.8-0.71,1.63-1.45,2.39-2.26
			l1.43-1.52l1.92,0.82c3.75,1.59,7.5,3.08,11.13,4.52c8.06,3.2,15.68,6.21,22.98,10.19c24.75,13.47,43.47,34.63,58.9,66.59
			c2.94,6.09,5.42,12.45,7.82,18.61c1.3,3.35,2.65,6.81,4.05,10.16c1.04,2.49,2.26,6.19,0.83,9.5c-0.91,2.11-2.71,3.69-5.35,4.68
			C262.19,503.08,260.95,503.33,259.79,503.33z"/>
		<path d="M161.94,381.12c11.88,5.05,23.37,8.88,33.85,14.58c26.98,14.69,44.55,38.17,57.63,65.26c4.48,9.28,7.83,19.09,11.8,28.62
			c1.77,4.25,2.3,8.3-2.81,10.22c-5.26,1.98-7.37-1.89-8.79-6.01c-7.93-22.97-18.34-44.58-34.46-63.05
			c-15.28-17.5-33.81-29.8-56.67-35.16c-3.93-0.92-7.92-2.8-6.62-7.74C156.48,385.54,159.37,383.84,161.94,381.12z"/>
		<path d="M338.04,502.8c-2.61,0-4.44-2.25-5.91-4.05c-0.35-0.42-0.74-0.91-0.95-1.11l-1.13-1.08l0.24-1.55
			c0.13-0.86,0.21-1.51,0.28-2.04c0.13-1.01,0.22-1.74,0.5-2.54c9.39-26.67,24.01-60.48,53.96-85.45
			c13.99-11.66,30.36-19.89,48.65-24.47c1.32-0.33,3.05-0.71,4.78-0.71c4.17,0,7.06,2.21,8.34,6.39c0.83,2.73,0.66,5.16-0.53,7.24
			c-1.34,2.36-3.85,4-7.44,4.87c-34.64,8.39-59.74,30.79-78.99,70.49c-2.21,4.56-4.12,9.44-5.96,14.15
			c-1.78,4.54-3.61,9.23-5.75,13.74c-1.63,3.43-6.32,5.84-9.74,6.11l-0.12,0.01L338.04,502.8z"/>
		<path d="M333.24,495.46c0.36-2.34,0.36-3.24,0.64-4.03c11.29-32.07,26.29-61.83,53.06-84.14c13.96-11.63,29.85-19.46,47.46-23.87
			c4.07-1.02,7.99-1.35,9.51,3.65c1.52,4.96-1.73,7.33-5.81,8.32c-39.83,9.65-63.95,36.97-80.98,72.09
			c-4.4,9.07-7.41,18.8-11.73,27.91c-1.06,2.23-4.67,4.2-7.26,4.4C336.45,499.92,334.49,496.65,333.24,495.46z"/>
		<path d="M445.79,211.71c-15.3,0-28.23-12.85-28.24-28.05c0-7.38,2.97-14.39,8.37-19.74c5.39-5.35,12.45-8.29,19.87-8.29
			c15.26,0,28.16,12.82,28.18,27.99c0.02,15.2-12.87,28.07-28.13,28.1H445.79z M445.83,174.11c-5.19,0-9.34,3.81-9.66,8.85
			c-0.33,5.41,3.59,9.93,8.95,10.3c0.23,0.02,0.46,0.02,0.69,0.02c5.05,0,9.25-3.93,9.57-8.96c0.17-2.69-0.66-5.2-2.33-7.09
			c-1.64-1.85-3.97-2.96-6.56-3.11C446.27,174.12,446.05,174.11,445.83,174.11z"/>
		<path d="M445.79,158.61c13.7,0,25.16,11.37,25.18,24.99c0.01,13.66-11.42,25.07-25.14,25.1c-13.68,0.03-25.28-11.46-25.28-25.06
			C420.55,170.06,432.09,158.62,445.79,158.61z M446.67,171.14c-7.15-0.43-13.06,4.67-13.49,11.64c-0.44,7.05,4.74,13,11.73,13.48
			c7,0.49,13.02-4.77,13.46-11.74C458.82,177.37,453.74,171.57,446.67,171.14z"/>
		<path d="M181.8,213.4c-7.39-0.07-14.35-3.07-19.61-8.44c-5.29-5.41-8.16-12.5-8.08-19.98c0.17-15.31,12.73-27.77,27.99-27.77
			l0.34,0c15.4,0.19,27.78,12.93,27.6,28.41c-0.18,15.31-12.72,27.76-27.96,27.76L181.8,213.4z M182.13,175.81
			c-5.47,0-9.76,4.17-9.76,9.5c0,2.56,0.98,4.92,2.78,6.67c1.82,1.77,4.3,2.74,6.99,2.74c2.67,0,5.17-1,7.04-2.81
			c1.84-1.77,2.85-4.12,2.85-6.6C192,180.16,187.48,175.81,182.13,175.81l0-3L182.13,175.81z"/>
		<path d="M207.04,185.6c-0.16,13.88-11.4,24.93-25.21,24.8c-13.67-0.13-24.87-11.63-24.72-25.38c0.15-13.77,11.58-24.96,25.3-24.8
			C196.22,160.39,207.2,171.71,207.04,185.6z M182.14,197.71c7.11-0.01,12.88-5.58,12.87-12.41c-0.01-6.83-5.85-12.49-12.88-12.49
			c-7.14,0-12.76,5.5-12.77,12.49C169.36,192.29,174.95,197.72,182.14,197.71z"/>
		<path d="M142.46,488.48c-15.46-0.08-28.01-12.68-27.97-28.08c0.04-15.39,12.65-27.9,28.1-27.9c7.55,0.02,14.59,2.97,19.91,8.32
			c5.29,5.32,8.19,12.35,8.16,19.78c-0.06,15.38-12.64,27.88-28.05,27.88H142.46z M142.35,450.72c-5.33,0.14-9.28,4.46-9.18,10.05
			c0.09,5.28,4.29,9.57,9.35,9.57l0.28,0c5.3-0.16,9.37-4.59,9.27-10.08c-0.09-5.26-4.34-9.55-9.47-9.55L142.35,450.72z"/>
		<path d="M167.66,460.59c-0.06,13.78-11.37,24.97-25.18,24.9c-13.85-0.07-25.02-11.28-24.98-25.07
			c0.04-13.72,11.37-24.94,25.16-24.91C156.43,435.53,167.71,446.85,167.66,460.59z M155.06,460.21
			c-0.13-7.06-5.88-12.67-12.8-12.49c-6.98,0.18-12.23,5.87-12.1,13.1c0.13,7.08,5.86,12.72,12.72,12.52
			C149.78,473.13,155.19,467.3,155.06,460.21z"/>
		<path d="M458.85,488.46c-7.57-0.04-14.65-3-19.92-8.35c-5.23-5.3-8.07-12.33-7.99-19.79c0.15-15.58,12.47-27.78,28.05-27.78l0.2,0
			c15.43,0.11,27.92,12.73,27.85,28.14c-0.08,15.58-12.4,27.79-28.05,27.79H458.85z M458.94,450.72c-5.19,0.05-9.72,4.64-9.69,9.83
			c0.03,5.21,4.58,9.78,9.74,9.78c2.47-0.01,4.93-1.09,6.77-2.97c1.85-1.89,2.91-4.41,2.9-6.9c-0.02-5.19-4.53-9.74-9.64-9.74
			H458.94z"/>
		<path d="M459.17,435.53c13.85,0.1,24.94,11.29,24.87,25.12c-0.07,13.87-11.24,24.87-25.18,24.81
			c-13.93-0.07-25.06-11.29-24.93-25.12C434.07,446.44,445.26,435.44,459.17,435.53z M458.91,447.72
			c-6.86,0.06-12.7,5.99-12.66,12.85c0.04,6.85,5.98,12.78,12.78,12.76c6.8-0.02,12.66-6,12.63-12.88
			C471.63,453.54,465.75,447.66,458.91,447.72z"/>
		<path d="M260.08,443.93c-8.23,0-8.89-8.33-9.14-11.47c-1.31-16.47-6.42-32.66-15.61-49.49c-2.95-5.39-6.78-10.54-10.49-15.53
			c-0.8-1.08-1.61-2.16-2.4-3.24l-0.58-0.78c-2.38-3.19-6.82-9.11-0.02-14.41c1.83-1.42,3.75-2.15,5.72-2.15
			c4.03,0,7.13,3.04,9.38,5.69c12.62,14.87,21.82,32.99,28.12,55.38c1.47,5.21,2.49,10.58,3.49,15.76c0.45,2.36,0.9,4.72,1.4,7.08
			l0.08,0.39l-0.02,0.39c-0.25,4.59-0.64,11.49-8.61,12.31C260.94,443.91,260.5,443.93,260.08,443.93z"/>
		<path d="M267,431.39c-0.25,4.48-0.49,8.94-5.92,9.49c-5.99,0.62-6.79-4.2-7.15-8.65c-1.44-18.13-7.34-34.9-15.97-50.69
			c-3.69-6.75-8.53-12.88-13.11-19.11c-2.66-3.62-6.01-7.28-1.18-11.05c4.41-3.43,7.95-0.43,10.96,3.11
			c13.49,15.9,21.93,34.39,27.52,54.25C264.25,416.16,265.41,423.83,267,431.39z"/>
		<path d="M339.8,443.94c-0.31,0-0.64-0.01-0.98-0.04c-8.63-0.66-8.51-8.36-8.45-12.5l0.01-0.6l0.03-0.19
			c4.54-31.95,15.43-57.73,33.29-78.82c2.76-3.25,5.67-4.9,8.68-4.9c2.15,0,4.21,0.84,6.13,2.49c6.64,5.7,1.15,12.18-0.65,14.31
			c-16.17,19.07-25.88,42.19-28.87,68.69l-0.03,0.25C348.51,436.57,347.68,443.94,339.8,443.94z"/>
		<path d="M333.38,431.02c4.06-28.61,13.65-54.93,32.61-77.31c2.95-3.48,6.58-5.5,10.57-2.08c4,3.43,1.69,6.93-0.99,10.09
			c-17.23,20.33-26.59,43.97-29.57,70.3c-0.5,4.39-0.94,9.34-6.95,8.88C333.05,440.45,333.32,435.56,333.38,431.02z"/>
		<path d="M313.13,509.86c-2.64,0-4.78-0.81-6.37-2.42c-1.89-1.92-2.79-4.72-2.75-8.58c0.2-16.65,0.47-33.14,0.71-47.06
			c0.11-5.99,3.48-9.64,9.03-9.77l0.29,0c5.64,0,9.07,3.8,9.18,10.16c0.1,5.66,0.08,11.39,0.06,16.94
			c-0.01,2.32-0.02,4.63-0.02,6.95v3h-0.91l0,3.87c0,5.45,0.01,10.9-0.01,16.34c-0.03,6.52-3.39,10.47-9,10.57L313.13,509.86z"/>
		<path d="M319.36,476.07c0,7.73,0.02,15.47-0.01,23.2c-0.02,4.1-1.49,7.5-6.05,7.58c-5.07,0.09-6.34-3.7-6.29-7.96
			c0.18-15.68,0.44-31.37,0.71-47.05c0.07-3.96,1.88-6.73,6.1-6.82c4.71-0.11,6.33,3.15,6.41,7.21c0.14,7.94,0.04,15.89,0.04,23.84
			C319.97,476.07,319.67,476.07,319.36,476.07z"/>
		<path class="st0" d="M351.31,151.96c-6.66,6.09-13.23,12.3-20.03,18.24c-4.31,3.77-4.83,8.11-3.65,13.37
			c1.95,8.7,3.48,17.5,5.42,27.51c-9.59-4.76-17.91-8.71-26.07-13c-4.44-2.33-8.28-2.34-12.69,0.3
			c-8.04,4.81-16.39,9.11-25.44,14.07c1.5-10.65,2.69-20.21,4.26-29.72c0.75-4.57-0.68-7.78-4.06-10.79
			c-6.89-6.14-13.51-12.59-21.4-19.99c9.49-1.67,17.74-3.6,26.09-4.44c7.08-0.71,11.21-3.81,13.78-10.44
			c3-7.74,6.93-15.12,11.16-24.15c4.69,8.87,9.03,16.39,12.68,24.23c2.63,5.66,6.05,8.58,12.67,8.9c8.72,0.42,17.38,2.19,26.07,3.38
			C350.52,150.29,350.91,151.12,351.31,151.96z"/>
		<path class="st2" d="M214.32,327.78c-9.11,0-17.54,0.66-25.82-0.2c-6.92-0.72-11.42,1.21-15.26,6.89
			c-4.8,7.09-10.29,13.72-16.38,21.73c-2.6-9.51-5.14-17.77-7.06-26.17c-1.44-6.28-4.58-10.1-10.99-11.9
			c-8.25-2.33-16.26-5.49-25.91-8.83c7.27-4.82,13.3-9.56,19.98-13.06c8.33-4.36,11.68-10.38,10.7-19.76
			c-0.76-7.21-0.15-14.56-0.15-23.97c7.23,5.75,13.45,9.86,18.61,15.02c7,7.01,14.09,8.26,23.16,4.28
			c6.56-2.87,13.81-4.18,21.87-6.52c-3.66,9.82-6.57,18.55-10.2,26.96c-2.18,5.05-1.33,8.89,1.79,13.1
			C204.02,312.58,208.98,320.09,214.32,327.78z"/>
		<path class="st1" d="M456.57,254.59c0,9.22,0.2,18.45-0.08,27.66c-0.15,4.87,1.6,8.09,5.69,10.66
			c7.97,5.01,15.74,10.33,24.8,16.33c-9.41,3.28-17.49,6.49-25.81,8.87c-6.37,1.82-9.6,5.54-11.03,11.86
			c-1.89,8.37-4.41,16.6-7.04,26.3c-6.05-7.95-11.75-14.86-16.78-22.23c-3.77-5.53-8.23-7.23-14.81-6.43
			c-8.3,1.01-16.73,0.89-26.61,1.32c5.76-8.37,10.59-15.86,15.93-22.96c3.44-4.58,4.45-8.7,2-14.23
			c-3.63-8.19-6.38-16.77-10.01-26.54c10.12,3.02,19.16,5.45,28.01,8.46c4.89,1.66,8.53,0.75,12.38-2.53
			c7.02-5.98,14.38-11.56,21.61-17.3C455.4,254.09,455.99,254.34,456.57,254.59z"/>
		<path class="st2" d="M446.67,171.14c7.07,0.43,12.15,6.23,11.7,13.39c-0.43,6.97-6.46,12.23-13.46,11.74
			c-7-0.49-12.17-6.43-11.73-13.48C433.61,175.81,439.52,170.71,446.67,171.14z"/>
		<path class="st2" d="M155.06,460.21c0.13,7.09-5.28,12.92-12.18,13.13c-6.86,0.21-12.6-5.43-12.72-12.52
			c-0.13-7.23,5.12-12.92,12.1-13.1C149.19,447.54,154.94,453.15,155.06,460.21z"/>
	</g>
	<path class="st0" d="M471.87,459.71c0.13,7.35-5.48,13.4-12.63,13.62c-7.11,0.22-13.06-5.64-13.19-12.98
		c-0.13-7.5,5.31-13.4,12.55-13.59C465.78,446.57,471.74,452.39,471.87,459.71z"/>
</g>
</svg>
