<svg width="98" height="133" viewBox="0 0 98 133" fill="none" xmlns="http://www.w3.org/2000/svg">
<g id="Camada_1" clip-path="url(#clip0_127_251)">
<path id="Vector" d="M48.8501 70.0377C59.594 70.0377 70.3433 70.0219 81.0872 70.043C86.7353 70.0535 91.3158 72.3136 94.7394 76.8339C96.5327 79.2047 97.453 81.9232 97.879 84.8576C98.1735 86.8702 97.8737 88.8195 97.5792 90.7846C96.5642 97.5491 94.3029 103.85 90.6848 109.661C85.9097 117.342 79.5043 123.254 71.5002 127.442C67.9084 129.323 64.1377 130.719 60.1988 131.657C56.1915 132.61 52.1158 133.095 47.9981 132.984C43.7121 132.868 39.4997 132.231 35.3714 130.982C21.4984 126.789 11.3645 118.159 4.83289 105.251C2.86079 101.353 1.57235 97.2014 0.730927 92.9235C0.368062 91.0849 0.0367495 89.204 -6.29644e-05 87.339C-0.115759 81.4016 2.22446 76.6021 7.04689 73.0934C10.0234 70.9228 13.4102 70.0114 17.0704 70.0114C27.6619 70.0166 38.2533 70.0114 48.8501 70.0114C48.8501 70.0166 48.8501 70.0272 48.8501 70.0324V70.0377Z" fill="black"/>
<path id="Vector_2" d="M49.0131 62.9096C31.4956 62.9623 16.9389 48.469 17.5753 30.3774C18.1748 13.408 31.9111 -0.0526822 49.113 1.53219e-06C66.6515 0.0579536 80.777 14.3932 80.3878 32.2055C80.0145 49.2856 66.1099 62.8938 49.0131 62.9043V62.9096Z" fill="black"/>
</g>
<defs>
<clipPath id="clip0_127_251">
<rect width="98" height="133" fill="white"/>
</clipPath>
</defs>
</svg>
