<svg width="101" height="76" viewBox="0 0 101 76" fill="none" xmlns="http://www.w3.org/2000/svg">
<path d="M47.5479 72.1638C46.682 71.381 45.898 70.6355 45.0731 69.9369C42.0598 67.3825 38.6719 65.4456 34.9942 63.9922C32.7429 63.1001 30.4413 62.3547 28.0609 61.8931C26.3165 61.5531 24.5501 61.3161 22.7995 61.0229C20.2679 60.5956 17.7081 60.6112 15.1577 60.4802C13.4731 60.3929 11.9995 58.9083 11.8736 57.2459C11.8358 56.7437 11.8295 56.2353 11.8295 55.7301C11.8295 38.5852 11.8295 21.4403 11.8295 4.29539C11.8295 3.51877 11.8138 2.73903 12.2105 2.02167C12.9316 0.739785 14.0241 -0.0243588 15.5103 0.000592815C17.2358 0.0317823 18.9612 0.190849 20.6867 0.324964C21.7698 0.409176 22.8561 0.502744 23.9235 0.683644C26.3889 1.09846 28.8228 1.67859 31.1812 2.50823C36.5308 4.38584 41.2223 7.2428 44.8401 11.6405C45.6241 12.5918 46.3231 13.6117 47.0252 14.6285C47.4251 15.2055 47.5542 15.8729 47.5542 16.5841C47.5448 34.8424 47.5479 53.1008 47.5479 71.3623V72.1669V72.1638Z" fill="black"/>
<path d="M53.2155 72.2044C53.2155 71.9487 53.2155 71.8083 53.2155 71.668C53.2155 53.2786 53.2155 34.8924 53.2092 16.5031C53.2092 15.6485 53.5115 14.9155 53.9744 14.22C55.7345 11.5813 57.8535 9.26084 60.3976 7.33957C62.8378 5.49627 65.511 4.06155 68.3732 2.96056C70.5143 2.13715 72.7183 1.53832 74.9539 1.03304C76.9375 0.587035 78.9527 0.353113 80.9804 0.21276C82.4319 0.112954 83.8835 0.00690927 85.3382 0.00379032C86.9944 0.000671368 88.4585 1.18587 88.8143 2.75471C88.9308 3.26622 88.9308 3.80891 88.9308 4.33914C88.9371 14.3042 88.9308 24.2692 88.9339 34.2343C88.9339 41.673 88.9182 49.1117 88.9528 56.5504C88.9623 58.5621 87.791 59.8316 86.4811 60.2744C85.971 60.446 85.4074 60.5021 84.8659 60.5333C83.493 60.6113 82.1076 60.5801 80.7411 60.7111C78.7858 60.9013 76.8368 61.1633 74.8972 61.4628C70.7032 62.1115 66.7044 63.4059 62.904 65.2585C59.5443 66.896 56.4838 68.9763 53.8421 71.6212C53.6689 71.7959 53.4832 71.9549 53.2187 72.2044H53.2155Z" fill="black"/>
<path d="M42.2771 75.1363C41.7733 75.0178 41.2726 74.8681 40.7626 74.7839C39.1379 74.5125 37.5131 74.2412 35.8821 74.0166C34.651 73.8451 33.4104 73.7203 32.1699 73.6205C31.0867 73.5363 29.9973 73.4739 28.911 73.4739C26.2882 73.4739 23.6622 73.4833 21.0425 73.5612C19.6162 73.6049 18.193 73.7764 16.7729 73.9355C14.7042 74.1694 12.6324 74.3878 10.5795 74.7184C8.51398 75.0521 6.4705 75.5106 4.41757 75.9254C2.27963 76.3558 0.261339 74.8774 0.0818652 72.7191C0.0346353 72.1639 0.00629732 71.6088 0.00629732 71.0505C0 52.8701 0 34.6866 0 16.5031C0 15.5362 0.100757 14.5787 0.749381 13.7834C1.44524 12.9288 2.31741 12.3705 3.46038 12.3362C4.23495 12.3112 5.00952 12.3268 5.78094 12.305C6.1021 12.2956 6.22805 12.4048 6.21231 12.7323C6.19027 13.1845 6.20601 13.6399 6.20601 14.0922C6.20601 27.7532 6.20601 41.4111 6.20286 55.0721C6.20286 56.3945 6.121 57.7263 6.46105 59.0144C7.40565 62.5825 9.70417 64.8656 13.3125 65.7857C14.2508 66.0258 15.2616 66.0102 16.2408 66.0757C18.0072 66.1943 19.7862 66.1911 21.54 66.4032C24.1124 66.7151 26.6597 67.2048 29.1471 67.9409C31.9022 68.758 34.5723 69.7717 37.0629 71.2158C38.9458 72.3043 40.6964 73.5644 42.3054 75.0178C42.296 75.0552 42.2865 75.0926 42.2771 75.1332V75.1363Z" fill="black"/>
<path d="M58.4549 75.0083C58.9177 74.6153 59.3711 74.2036 59.8497 73.8293C63.096 71.278 66.7044 69.4004 70.6937 68.2682C72.4035 67.7816 74.1163 67.2888 75.8544 66.9364C78.6441 66.3687 81.4747 66.1099 84.3274 66.0912C85.8955 66.0818 87.4572 65.9882 88.9087 65.3364C92.1109 63.8923 94.0379 61.4751 94.4598 57.9881C94.5795 56.9901 94.57 55.9733 94.57 54.9627C94.5763 41.7321 94.5732 28.5015 94.57 15.2678C94.57 14.4007 94.5606 13.5306 94.5417 12.6635C94.5385 12.4514 94.57 12.3017 94.8251 12.3079C95.7948 12.3329 96.7741 12.283 97.7313 12.4015C99.2741 12.5949 100.496 13.8955 100.678 15.4175C100.732 15.8542 100.76 16.294 100.76 16.7337C100.763 35.0856 100.763 53.4344 100.76 71.7864C100.76 72.6971 100.66 73.5922 100.127 74.3907C99.3056 75.6196 97.7533 76.2122 96.286 75.919C93.7986 75.42 91.308 74.9209 88.8017 74.5248C86.8778 74.2192 84.9257 74.085 82.9892 73.848C78.3607 73.2866 73.7196 73.4332 69.0785 73.5579C67.8505 73.5922 66.6257 73.7887 65.4071 73.9509C63.6817 74.1817 61.9625 74.4375 60.2465 74.7119C59.6577 74.8055 59.0878 74.9927 58.5084 75.1392C58.4927 75.0956 58.4738 75.0519 58.458 75.0083H58.4549Z" fill="black"/>
</svg>
