<svg width="53" height="53" viewBox="0 0 53 53" fill="none" xmlns="http://www.w3.org/2000/svg">
<path d="M26.2919 0C40.7694 0.0430462 52.7591 11.8841 52.5484 26.8409C52.3475 41.0511 40.7677 53.0478 25.8012 52.8259C11.788 52.6173 -0.302138 41.0379 0.00575487 25.8111C0.290597 11.6407 11.7765 0.0711917 26.2919 0ZM10.8248 15.7797C10.945 15.9105 11.0306 16.0099 11.1212 16.1009C14.503 19.5016 17.8866 22.9022 21.2701 26.3029C22.4556 27.4949 23.6394 28.6886 24.8331 29.8724C24.9203 29.9585 25.0685 30.0197 25.1904 30.023C25.7913 30.0413 26.3956 30.0048 26.9949 30.0479C27.4164 30.0777 27.6963 29.9187 27.9795 29.634C31.3219 26.2598 34.6725 22.8956 38.0214 19.5281C39.2168 18.3261 40.4105 17.1224 41.6042 15.9188C41.6387 15.884 41.6618 15.841 41.7063 15.7781H10.8248V15.7797ZM40.8665 37.0479C40.7957 36.9667 40.7579 36.9137 40.7118 36.869C39.2365 35.384 37.7596 33.9005 36.2844 32.4171C34.8997 31.0264 33.5133 29.6373 32.1352 28.2399C31.9986 28.1025 31.9261 28.0777 31.7796 28.225C30.8032 29.2184 29.8071 30.1919 28.8423 31.1969C28.4553 31.5992 28.0421 31.8078 27.4707 31.783C26.6096 31.7449 25.7469 31.7631 24.8841 31.7797C24.4939 31.7863 24.186 31.6687 23.9127 31.3889C22.8738 30.3326 21.8217 29.288 20.7844 28.23C20.6378 28.0793 20.5637 28.0992 20.4287 28.2333C17.5655 31.1141 14.6973 33.9916 11.8324 36.8707C11.7863 36.9171 11.7435 36.97 11.6744 37.0479H40.8682H40.8665ZM9.5817 36.6389C9.59652 36.6505 9.61134 36.6637 9.62616 36.6753C9.83362 36.4618 10.0411 36.2449 10.2502 36.0346C13.1924 33.0777 16.1347 30.1207 19.077 27.1654C19.3931 26.8492 19.3964 26.8476 19.077 26.5247C15.9602 23.3923 12.8434 20.2615 9.72659 17.1324C9.69037 17.096 9.64757 17.0695 9.58006 17.0165V36.6406L9.5817 36.6389ZM42.9642 17.0662C42.946 17.0546 42.9279 17.0413 42.9098 17.0297C42.8143 17.134 42.7205 17.24 42.62 17.341C39.5411 20.4337 36.4606 23.5247 33.38 26.6174C33.1626 26.836 33.1643 26.8608 33.3783 27.0744C36.5396 30.2499 39.6992 33.4254 42.8621 36.6008C42.8868 36.6257 42.9213 36.6373 42.9642 36.6621V17.0662Z" fill="#E3E3E3"/>
<path d="M10.8248 15.7798H41.7063C41.6618 15.841 41.6371 15.8857 41.6042 15.9205C40.4105 17.1242 39.2168 18.3278 38.0214 19.5298C34.6725 22.8973 31.3219 26.2615 27.9795 29.6357C27.6963 29.9221 27.4148 30.0794 26.9949 30.0496C26.3956 30.0065 25.7914 30.043 25.1904 30.0248C25.0686 30.0214 24.9187 29.9602 24.8331 29.8741C23.6411 28.6887 22.4556 27.4966 21.2701 26.3046C17.8866 22.9039 14.5031 19.5049 11.1212 16.1026C11.0306 16.0116 10.945 15.9122 10.8248 15.7814V15.7798Z" fill="black"/>
<path d="M40.8665 37.0477H11.6727C11.7419 36.9699 11.7847 36.9169 11.8308 36.8705C14.6973 33.9914 17.5638 31.1139 20.4271 28.2331C20.5621 28.0974 20.6362 28.0792 20.7827 28.2298C21.82 29.2878 22.8721 30.3325 23.911 31.3888C24.1844 31.6669 24.4939 31.7861 24.8825 31.7795C25.7452 31.7629 26.608 31.7464 27.4691 31.7828C28.0404 31.8076 28.4537 31.599 28.8406 31.1967C29.8071 30.1934 30.8016 29.2199 31.7779 28.2249C31.9245 28.0759 31.9969 28.1007 32.1336 28.2398C33.5117 29.6371 34.898 31.0262 36.2827 32.4169C37.7596 33.9003 39.2349 35.3838 40.7101 36.8689C40.7546 36.9136 40.7941 36.9666 40.8649 37.0477H40.8665Z" fill="black"/>
<path d="M9.58179 36.639V17.0149C9.64929 17.0679 9.6921 17.0944 9.72833 17.1308C12.8451 20.2616 15.9619 23.3923 19.0787 26.5231C19.3998 26.846 19.3948 26.846 19.0787 27.1639C16.1364 30.1191 13.1925 33.0761 10.2519 36.033C10.0412 36.2449 9.83535 36.4602 9.62789 36.6737C9.61308 36.6622 9.59825 36.6489 9.58344 36.6373L9.58179 36.639Z" fill="black"/>
<path d="M42.9642 17.0662V36.6622C42.9214 36.6373 42.8851 36.6241 42.8621 36.6009C39.7008 33.4254 36.5396 30.2499 33.3783 27.0744C33.1659 26.8609 33.1627 26.836 33.38 26.6175C36.4606 23.5248 39.5395 20.4337 42.6201 17.341C42.7205 17.24 42.8127 17.1341 42.9098 17.0298C42.928 17.0414 42.9461 17.0546 42.9642 17.0662Z" fill="black"/>
</svg>
