<svg width="103" height="91" viewBox="0 0 103 91" fill="none" xmlns="http://www.w3.org/2000/svg">
<path d="M29.0738 0.0806687C31.9987 0.05487 34.8592 0.493447 37.6906 1.21581C40.7445 1.99622 43.6468 3.13458 46.417 4.61801C47.0813 4.97274 47.5328 5.47904 47.4908 6.31104C47.465 6.77542 47.2683 7.13015 46.9362 7.42684C45.672 8.54585 44.4047 9.66164 43.1341 10.7742C39.1385 14.2667 35.1042 17.7205 31.1538 21.2646C28.8577 23.322 27.542 25.9664 27.0002 29.0139C26.3875 32.4515 26.9132 35.6893 28.6804 38.6884C30.5766 41.9035 33.3854 43.9964 36.9682 45.0123C38.7193 45.5089 40.5252 45.5605 42.3472 45.4218C44.7723 45.2348 46.8717 44.2351 48.9291 43.0451C53.5761 40.3556 58.2424 37.6983 62.9023 35.0314C63.1667 34.8798 63.4247 34.6831 63.7117 34.6025C64.3051 34.4348 64.8694 34.5509 65.2854 35.0411C65.6305 35.4506 65.9465 35.8828 66.2529 36.3213C71.3417 43.5675 76.4337 50.8137 81.5128 58.0631C82.6899 59.7401 83.825 61.446 84.9988 63.1294C87.5787 66.825 85.9598 71.4623 82.4738 73.6004C81.5547 74.1647 80.971 74.1067 80.1358 73.4005C76.5401 70.3691 72.9477 67.3281 69.3552 64.2903C64.6373 60.3012 59.9161 56.3153 55.195 52.3262C54.3758 51.6328 53.5664 50.9298 52.7376 50.2526C52.2281 49.8366 51.6605 49.6238 50.9833 49.8527C49.7547 50.2687 49.3516 51.6457 50.1965 52.6358C50.4029 52.8776 50.6544 53.0872 50.8995 53.2968C57.3588 58.7565 63.8181 64.2129 70.2775 69.6725C71.8125 70.9689 73.3443 72.275 74.8826 73.5681C75.5307 74.1131 75.7436 74.7775 75.4695 75.5772C74.789 77.5605 73.5346 79.0665 71.7125 80.1113C70.887 80.5854 70.184 80.3822 69.4971 79.8308C67.5396 78.2635 65.5821 76.7027 63.6182 75.1451C56.9815 69.8822 50.3448 64.6225 43.6984 59.3724C43.3308 59.0822 42.8922 58.8113 42.4472 58.7049C41.5733 58.4985 40.6284 59.3402 40.5445 60.2302C40.4736 60.9848 40.7832 61.5169 41.3443 61.9587C43.6855 63.813 46.0268 65.6705 48.368 67.5312C53.8341 71.8751 59.2937 76.2286 64.7727 80.5563C65.1403 80.8466 65.2371 81.0981 65.1178 81.5303C64.547 83.5974 63.3538 85.2098 61.5672 86.3739C60.8868 86.819 60.0322 86.7029 59.4001 86.1772C51.6702 79.7501 43.9403 73.3231 36.2104 66.8992C35.6912 66.4671 35.1429 66.1543 34.4141 66.3284C33.0887 66.6477 32.5824 68.2149 33.5338 69.1888C34.0368 69.7048 34.6141 70.1498 35.1687 70.6142C40.4994 75.0419 45.83 79.4664 51.1639 83.8908C51.7218 84.352 52.2862 84.8034 52.8344 85.2775C53.6567 85.9837 53.818 86.6739 53.3052 87.6316C51.5541 90.8984 47.8681 91.8755 44.9368 90.1696C43.3179 89.2279 41.7797 88.1444 40.2285 87.0963C36.7908 84.768 33.3112 82.4945 29.9477 80.063C24.3107 75.9932 19.1478 71.3849 14.6524 66.0575C11.0051 61.7362 7.92859 57.0441 5.54222 51.9134C3.76533 48.092 2.36576 44.1383 1.44668 40.0234C1.0339 38.1724 0.621122 36.3084 0.388934 34.4284C-0.0109451 31.3035 -0.152838 28.1625 0.205119 25.0086C0.501803 22.3739 1.04357 19.8037 1.9691 17.3271C4.28453 11.1418 8.37362 6.50776 14.2331 3.44417C16.6195 2.19616 19.1478 1.35448 21.7696 0.757883C24.1785 0.209662 26.6197 0.0806687 29.0738 0.0838935V0.0806687Z" fill="black"/>
<path d="M73.7215 0.00322483C79.839 0.038698 84.973 1.24801 89.6909 3.98912C94.1347 6.56898 97.4853 10.1872 99.7782 14.7859C101.233 17.7011 102.136 20.7969 102.603 23.9928C103.019 26.8403 103.1 29.7233 102.884 32.6127C102.719 34.7927 102.445 36.9566 102.023 39.0946C101.333 42.5904 100.368 46.0087 99.0848 49.3399C97.2757 54.0353 94.9216 58.4372 92.0515 62.565C91.8064 62.9165 91.571 63.2744 91.3323 63.6292C90.8196 64.3902 89.578 64.3838 89.1846 63.5582C87.2787 59.5755 84.4086 56.2314 81.961 52.6099C79.5682 49.069 77.056 45.612 74.6051 42.1131C73.9054 41.1134 74.3149 40.2137 75.5274 39.8912C77.9364 39.2494 80.0777 38.0949 81.8739 36.3503C82.5866 35.6602 82.593 34.6218 81.9449 33.8898C81.3676 33.2383 80.2744 33.1513 79.5456 33.7608C78.5975 34.5573 77.6171 35.2893 76.4981 35.8311C75.0179 36.5502 73.4249 36.834 71.8189 37.0533C71.2707 37.1275 70.8772 36.7792 70.5806 36.3632C69.626 35.0217 68.6843 33.6672 67.7363 32.3193C66.9752 31.2357 66.2141 30.1457 65.4434 29.0686C64.9951 28.4398 64.4018 28.098 63.6117 28.314C62.7474 28.5527 62.167 29.1041 61.9509 29.9942C61.9154 30.1361 61.8896 30.2876 61.8993 30.4327C61.9541 31.3099 61.4382 31.8226 60.7577 32.2193C59.1582 33.1448 57.5522 34.0575 55.9463 34.9733C53.318 36.4729 50.6898 37.9756 48.0648 39.4752C47.3327 39.8944 46.6007 40.3136 45.8654 40.7264C43.6758 41.9583 41.2991 42.3872 38.8772 41.8744C34.2399 40.8941 31.2924 38.0143 30.4088 33.3448C29.7155 29.6846 30.77 26.3662 33.553 23.8509C38.2968 19.5651 43.1534 15.405 47.9906 11.2256C49.8449 9.6229 51.7056 8.01371 53.6824 6.57543C56.6428 4.41802 59.9289 2.86043 63.4279 1.75108C65.4756 1.10289 67.5557 0.596594 69.6744 0.306359C71.2384 0.0935201 72.825 0.0644966 73.7215 0V0.00322483Z" fill="black"/>
</svg>
