<svg width="96" height="126" viewBox="0 0 96 126" fill="none" xmlns="http://www.w3.org/2000/svg">
<path d="M12.2936 113.382C12.2936 108.051 12.3249 103.007 12.2857 97.9666C12.2114 87.7209 15.9362 79.1369 23.6128 72.4508C26.4024 70.0213 29.6499 68.1155 32.6978 65.9892C34.079 65.0284 35.4875 64.103 37.1269 63.0005C33.6603 60.6773 30.3737 58.4841 27.095 56.279C19.2228 50.9829 14.2421 43.6707 12.6927 34.2756C12.0471 30.3616 12.1997 26.3058 12.0901 22.3131C12.004 19.1748 12.0745 16.0326 12.0745 12.6265C10.1925 12.6265 8.4553 12.6423 6.72201 12.6265C2.79375 12.5871 -0.0350683 9.88988 0.00405784 6.2397C0.043184 2.66435 2.82114 0.0143261 6.67115 0.0103885C34.2511 -0.0014244 61.8311 -0.00536202 89.4111 0.0103885C93.2338 0.0103885 96.0039 2.72735 96 6.31058C95.9922 9.89382 93.2064 12.5675 89.3994 12.6226C87.9752 12.6423 86.5471 12.6226 84.8412 12.6226C84.8412 13.4613 84.8412 14.1583 84.8412 14.8513C84.8412 19.6434 84.939 24.4354 84.8099 29.2197C84.5126 40.1584 79.88 48.8959 71.1588 55.3694C67.6062 58.0076 63.8383 60.3465 59.8944 63.0044C61.839 64.3078 63.5996 65.4851 65.3603 66.6625C69.5351 69.4582 73.8272 72.0885 77.0786 76.0655C82.0554 82.1531 84.763 89.0794 84.8295 96.9901C84.8725 102.357 84.8373 107.728 84.8373 113.371C86.4767 113.371 87.9517 113.351 89.4229 113.371C93.222 113.43 96.0078 116.119 96 119.702C95.9922 123.282 93.2181 125.983 89.3877 125.987C61.8077 126.006 34.2277 126.002 6.64376 125.987C2.80549 125.987 0.0236209 123.309 0.000145232 119.734C-0.0233304 116.08 2.80157 113.41 6.74549 113.371C8.49834 113.355 10.2512 113.371 12.2936 113.371V113.382ZM24.6379 113.225H72.3248C72.3248 107.755 72.403 102.444 72.3052 97.1357C72.1878 90.5717 69.539 85.1063 64.3039 81.2396C59.2214 77.4831 53.8416 74.1361 48.4735 70.5253C42.9371 74.2897 37.3343 77.8847 31.974 81.8223C28.5192 84.3582 26.2851 88.0083 25.4086 92.2413C24.857 94.907 24.7435 97.6909 24.6652 100.428C24.5479 104.672 24.6339 108.921 24.6339 113.229L24.6379 113.225Z" fill="black"/>
</svg>
