<svg width="69" height="108" viewBox="0 0 69 108" fill="none" xmlns="http://www.w3.org/2000/svg">
<path d="M26.0906 36.3729C27.7292 32.5674 26.777 28.3128 23.8555 25.5422C20.8801 22.7178 16.2338 22.1249 12.608 24.13C10.4555 25.3194 8.95348 27.1054 8.17729 29.4519C7.4083 31.7769 7.5161 34.091 8.42883 36.3944H0.0165729C-0.242155 26.958 2.52121 18.5961 8.81693 11.5422C15.1162 4.48462 23.1117 0.808526 32.5876 0C32.5876 0.380905 32.5876 0.61448 32.5876 0.851647C32.5804 5.20691 32.5696 9.56216 32.5588 13.9174C32.5588 14.9056 32.9685 15.574 33.7986 15.9082C34.5604 16.2172 35.4156 16.0124 36.0409 15.3404C37.1836 14.1187 38.6066 13.4718 40.2524 13.4179C42.4013 13.3497 44.5861 14.8805 45.4845 16.8389C46.9506 20.0299 45.0748 23.343 42.4983 24.3995C40.3243 25.2871 38.3119 24.9277 36.508 23.4221C36.2781 23.2316 36.0768 23.0088 35.8576 22.804C35.2324 22.2147 34.4921 22.1069 33.7375 22.4231C32.9541 22.7537 32.5481 23.4185 32.5481 24.2737C32.5481 26.5951 32.5696 28.9129 32.5768 31.2342C32.584 32.8513 32.5732 34.4683 32.584 36.0854C32.584 36.3369 32.5265 36.434 32.2642 36.4304C30.259 36.416 28.2539 36.416 26.2487 36.4088C26.2056 36.4088 26.1625 36.3908 26.0906 36.3765V36.3729Z" fill="black"/>
<path d="M36.4793 10.2881V0.0791016C42.5594 0.495942 48.2119 2.26751 53.3397 5.63457C58.4784 9.00882 62.4707 13.4324 65.2269 18.9303C67.9723 24.4067 69.2911 30.1958 68.9461 36.3873C68.7161 36.3981 68.5436 36.4125 68.3675 36.4125C64.7166 36.4125 61.0621 36.4125 57.4111 36.4196C57.1129 36.4196 56.8146 36.4556 56.5164 36.4735C55.8048 36.5203 55.3018 36.8652 55.061 37.5444C54.7915 38.317 54.831 39.0644 55.4275 39.6717C56.1498 40.4048 56.7499 41.1917 57.1272 42.1692C57.907 44.1923 57.4722 46.0141 56.1893 47.6348C54.7484 49.4567 52.7684 50.1179 50.5404 49.6507C48.1795 49.1548 46.3613 47.1137 46.0954 44.8032C45.8762 42.8986 46.5014 41.296 47.831 39.9628C48.3772 39.4166 48.7509 38.8416 48.6251 38.0223C48.5102 37.2677 47.9029 36.5957 47.1446 36.4915C46.7889 36.4412 46.4295 36.4196 46.0702 36.4196C43.0769 36.4125 40.0835 36.4125 37.0866 36.4125C36.8818 36.4125 36.6733 36.4125 36.4398 36.4125V28.0469C36.9392 28.1763 37.41 28.2805 37.8735 28.417C42.4013 29.7466 47.7124 27.1881 49.3366 22.3154C50.8962 17.6295 48.909 12.7604 44.6544 10.5971C42.2504 9.37535 39.7385 9.21365 37.1728 10.0689C36.9644 10.1372 36.756 10.2018 36.4757 10.2881H36.4793Z" fill="black"/>
<path d="M42.8612 40.2251C41.1867 45.4104 42.3797 49.6902 47.1267 52.4536C50.6339 54.4947 54.3315 54.2 57.5728 51.7026C61.4034 48.7487 62.1006 44.7924 60.6668 40.2718H68.4178C68.3639 40.6815 68.346 41.0695 68.2597 41.4397C67.595 44.3144 66.6966 47.1101 65.3706 49.7621C63.5954 53.3196 61.2813 56.4747 58.4245 59.2344C55.2946 62.2565 53.214 65.8859 52.2761 70.1298C51.9742 71.4917 51.906 72.9111 51.7586 74.3053C51.7263 74.6108 51.6903 74.7581 51.3346 74.7581C46.4834 74.7545 41.6323 74.7581 36.7811 74.7725C36.4541 74.7725 36.4326 74.6359 36.4326 74.3628C36.4398 70.4711 36.4398 66.5758 36.4254 62.6841C36.4218 61.5845 35.739 60.7724 34.7401 60.6251C34.0645 60.5245 33.5147 60.7724 33.0439 61.2539C32.1923 62.1307 31.2149 62.7668 29.9931 63.0291C27.1651 63.6364 24.47 62.1128 23.3883 59.4321C21.9905 55.968 24.7826 51.6774 28.8755 51.7708C30.2662 51.8032 31.4988 52.317 32.5445 53.2477C32.7996 53.4777 33.0439 53.7221 33.3135 53.9341C33.9064 54.4048 34.546 54.5629 35.2755 54.2216C36.0517 53.8586 36.4182 53.2406 36.4613 52.4141C36.4793 52.0727 36.4362 51.7277 36.4362 51.3827C36.4326 47.7893 36.4362 44.1958 36.4254 40.6024C36.4254 40.376 36.4649 40.2179 36.7308 40.2179C38.7611 40.2179 40.795 40.2179 42.8541 40.2179L42.8612 40.2251Z" fill="black"/>
<path d="M32.5013 48.605C30.029 47.6851 27.625 47.624 25.2318 48.5331C23.4027 49.2303 21.9545 50.4305 20.8262 52.0188C18.6737 55.0624 18.5911 59.5542 20.6609 62.6913C21.9474 64.639 23.6866 65.9757 25.9181 66.6657C28.1317 67.3484 30.3093 67.1759 32.5516 66.3423C32.5516 66.6908 32.5516 66.9675 32.5516 67.2406C32.5516 69.6051 32.5552 71.9696 32.5624 74.3341C32.5624 74.6144 32.5085 74.7689 32.1635 74.7689C27.3447 74.7581 22.5223 74.7617 17.7035 74.7617C17.5849 74.7617 17.4663 74.7617 17.301 74.7617C17.2867 74.6108 17.2687 74.485 17.2651 74.3557C17.1106 68.66 15.0982 63.7406 11.0556 59.7052C8.97142 57.6246 7.02736 55.4433 5.45343 52.9459C3.50938 49.8663 2.02888 46.5819 1.17723 43.0316C0.961625 42.1368 0.742424 41.2384 0.50885 40.279C0.767578 40.2574 0.92569 40.2287 1.08021 40.2287C4.71678 40.2287 8.35694 40.2179 11.9935 40.2395C12.8416 40.2431 13.5459 40.031 13.9268 39.2261C14.3293 38.3816 14.1532 37.5013 13.4489 36.8041C12.2882 35.665 11.5407 34.3067 11.5371 32.6824C11.53 30.5264 12.4966 28.8267 14.3508 27.684C17.6029 25.6824 21.7928 27.4612 22.7739 31.0905C23.3237 33.1244 22.8098 34.9355 21.3868 36.4879C21.2359 36.6532 21.0957 36.8365 20.9232 36.9766C20.0824 37.6737 20.1974 39.262 21.2215 39.9412C21.4012 40.0598 21.6275 40.146 21.8396 40.1712C22.2241 40.2179 22.6157 40.2179 23.0038 40.2215C25.9972 40.2251 28.9905 40.2323 31.9875 40.2215C32.4259 40.2215 32.5804 40.3329 32.5732 40.8C32.548 43.2544 32.5588 45.7087 32.5516 48.1666C32.5516 48.2924 32.5229 48.4217 32.5013 48.6086V48.605Z" fill="black"/>
<path d="M17.2794 88.1688H51.7621C51.7621 88.3197 51.7621 88.4491 51.7621 88.5821C51.7621 92.1468 51.7657 95.7079 51.7621 99.2726C51.7586 102.334 50.4649 104.702 47.8345 106.28C46.8032 106.898 45.6677 107.257 44.4279 107.254C37.8986 107.236 31.3729 107.236 24.8436 107.228C21.8215 107.228 19.6978 105.741 18.2101 103.215C17.5417 102.079 17.2722 100.821 17.2686 99.5169C17.2543 95.8336 17.265 92.1504 17.265 88.4671C17.265 88.3808 17.2722 88.291 17.2794 88.1724V88.1688ZM28.7677 97.713C28.6383 100.613 31.0064 103.477 34.5136 103.524C37.6399 103.567 40.1697 100.972 40.2703 97.9394C40.3781 94.673 37.7729 91.9887 34.51 91.9779C31.0028 91.9671 28.6167 94.9748 28.7677 97.713Z" fill="black"/>
<path d="M34.5137 84.3383C28.3006 84.3383 22.0875 84.3383 15.8745 84.3383C14.1963 84.3383 13.4273 83.5837 13.4166 81.9056C13.4166 81.3522 13.4094 80.7952 13.4884 80.249C13.6178 79.3542 14.2646 78.7362 15.1522 78.6104C15.5511 78.5529 15.9571 78.5529 16.3596 78.5529C28.3222 78.5529 40.2848 78.5529 52.2474 78.5529C52.6354 78.5529 53.0271 78.5385 53.4152 78.5457C54.6693 78.5709 55.5102 79.3399 55.5964 80.5868C55.6396 81.1977 55.6396 81.8158 55.5964 82.4266C55.521 83.519 54.8274 84.2018 53.7314 84.3132C53.5697 84.3312 53.4044 84.3348 53.2391 84.3348C46.9973 84.3348 40.7519 84.3348 34.5101 84.3348L34.5137 84.3383Z" fill="black"/>
<path d="M55.6899 99.6787C55.6683 99.4631 55.6432 99.3301 55.6432 99.2007C55.6396 98.1982 55.6432 97.1956 55.6324 96.1966C55.6324 95.9199 55.6971 95.7942 56.0133 95.8157C56.5775 95.8588 57.1488 95.8301 57.713 95.8768C58.6221 95.9523 59.3408 96.7285 59.3803 97.6304C59.4235 98.6078 58.8198 99.4307 57.8783 99.5601C57.174 99.6571 56.4517 99.6427 55.6863 99.6787H55.6899Z" fill="black"/>
<path d="M13.3698 97.7633C13.3698 98.27 13.3698 98.7767 13.3698 99.2869C13.3698 99.5421 13.2872 99.6643 13.0033 99.6463C12.3924 99.6068 11.7743 99.6463 11.1742 99.5565C10.2292 99.4199 9.61468 98.6006 9.65421 97.6447C9.69014 96.7284 10.3873 95.963 11.3072 95.8804C11.8857 95.8265 12.4715 95.848 13.05 95.8193C13.3375 95.8049 13.4022 95.9414 13.3986 96.2002C13.3842 96.7212 13.395 97.2459 13.395 97.7669C13.3878 97.7669 13.3806 97.7669 13.3734 97.7669L13.3698 97.7633Z" fill="black"/>
<path d="M34.4418 99.5745C33.3782 99.5745 32.6451 98.8378 32.6163 97.7777C32.5948 96.9979 33.3638 95.8013 34.5676 95.8516C35.5378 95.8912 36.4074 96.7536 36.4003 97.7382C36.3931 98.809 35.5738 99.5745 34.4454 99.5745H34.4418Z" fill="black"/>
</svg>
