<svg width="53" height="53" viewBox="0 0 53 53" fill="none" xmlns="http://www.w3.org/2000/svg">
<path d="M52.6991 26.5661C52.6727 41.1869 40.8214 53.0379 26.2615 52.9998C11.7231 52.9617 -0.0377779 41.0445 9.11959e-05 26.389C0.0379603 11.8096 11.8696 -0.0198425 26.3965 2.49889e-05C40.9432 0.0198925 52.7238 11.9205 52.6991 26.5678V26.5661ZM26.3323 43.8442C27.9376 41.9154 29.4343 40.1902 30.8503 38.4022C33.6213 34.9038 36.2408 31.2996 38.1162 27.2102C39.1337 24.99 39.654 22.7185 39.2193 20.235C37.7869 12.053 29.5676 7.25331 21.7831 10.091C15.477 12.389 11.0727 20.2483 14.5863 27.2648C16.3365 30.7598 18.4391 34.0015 20.8182 37.0711C22.5684 39.326 24.4191 41.5015 26.3323 43.8442Z" fill="#E3E3E3"/>
<path d="M26.3307 43.8458C24.4174 41.5031 22.5668 39.3276 20.8166 37.0727C18.4358 34.0048 16.3332 30.7614 14.5846 27.2664C11.0711 20.2516 15.477 12.3923 21.7814 10.0927C29.566 7.25492 37.7852 12.0546 39.2177 20.2367C39.6524 22.7184 39.1337 24.9916 38.1145 27.2118C36.2392 31.3012 33.6196 34.9055 30.8486 38.4038C29.431 40.1919 27.936 41.917 26.3307 43.8458ZM26.3537 17.2102C23.6041 17.2102 21.4225 19.3691 21.406 22.1075C21.3896 24.8625 23.6304 27.1505 26.3455 27.1522C29.0622 27.1538 31.3063 24.8691 31.2932 22.1141C31.28 19.3741 29.1 17.2085 26.3537 17.2085V17.2102Z" fill="black"/>
<path d="M26.3537 17.2102C29.1 17.2102 31.2799 19.3758 31.2931 22.1158C31.3063 24.8708 29.0621 27.1555 26.3454 27.1539C23.6304 27.1522 21.3895 24.8625 21.406 22.1092C21.4224 19.3691 23.6024 17.2102 26.3537 17.2119V17.2102Z" fill="#E3E3E3"/>
</svg>
