<?xml version="1.0" encoding="utf-8"?>
<!-- Generator: Adobe Illustrator 27.3.1, SVG Export Plug-In . SVG Version: 6.00 Build 0)  -->
<svg version="1.1" id="Camada_1" xmlns="http://www.w3.org/2000/svg" xmlns:xlink="http://www.w3.org/1999/xlink" x="0px" y="0px"
	 viewBox="0 0 600 600" style="enable-background:new 0 0 600 600;" xml:space="preserve">
<style type="text/css">
	.st0{fill:#730071;}
	.st1{fill:#FFC700;}
	.st2{fill:#FFFFFF;}
</style>
<g>
	<circle class="st1" cx="300" cy="300" r="300"/>
</g>
<g>
	<path d="M120.02,300.07c0-30.87,0.03-61.74-0.02-92.6c-0.01-7.81,0.67-15.49,2.61-23.08c5.46-21.3,17.39-37.99,35.59-50.24
		c9.6-6.46,20.2-10.62,31.56-12.62c5.09-0.9,10.33-1.33,15.51-1.33c63.44-0.09,126.89-0.22,190.33,0.02
		c25.37,0.1,46.59,10.11,63.47,29.11c8.15,9.17,13.83,19.76,17.32,31.48c2.25,7.56,3.5,15.32,3.5,23.24c0,23,0,46,0,69
		c0,5.14-1.51,9.58-5.75,12.81c-8.37,6.37-20.73,1.18-22.07-9.3c-0.19-1.48-0.28-2.99-0.29-4.48c-0.02-22.62,0.24-45.25-0.08-67.87
		c-0.33-22.94-11.18-39.69-31.42-50.33c-6.37-3.35-13.26-5.07-20.47-5.35c-3.27-0.13-6.55-0.26-9.82-0.26
		c-61.94-0.01-123.89,0.01-185.83-0.02c-23.47-0.01-43.31,14.41-51.67,34.25c-2.9,6.88-4.33,14.02-4.33,21.44
		c-0.02,63.98,0,127.97-0.02,191.95c-0.01,23.44,14.42,43.26,34.59,51.73c7.03,2.95,14.39,4.11,21.91,4.14
		c19.49,0.09,38.98,0.03,58.48,0.04c4.35,0,8.4,0.94,11.52,4.23c2.3,2.42,3.7,5.17,4.03,8.68c0.84,8.95-6.73,15.25-15.12,15.22
		c-19.49-0.08-38.99,0.04-58.48-0.07c-4.57-0.03-9.18-0.38-13.71-1.05c-7.61-1.14-14.95-3.38-21.93-6.67
		c-20.69-9.74-35.26-25.27-43.7-46.49c-3.04-7.65-4.85-15.62-5.42-23.85c-0.19-2.8-0.28-5.61-0.29-8.42
		C120.01,362.27,120.02,331.17,120.02,300.07z"/>
	<path d="M480,357.21c-0.44,15.16-5.35,27.34-15.28,37.33c-16.45,16.54-32.97,33.01-49.5,49.48c-9.16,9.12-19.7,16.24-31.59,21.31
		c-6.81,2.9-13.85,5.09-21.16,6.41c-5.29,0.96-10.53,2.16-15.8,3.21c-7.65,1.52-15.32,2.99-22.98,4.51
		c-8.18,1.63-15.71-4.13-16.68-12.96c-0.08-0.78,0.01-1.6,0.16-2.37c0.96-4.86,1.98-9.71,2.96-14.56c2-9.9,3.8-19.84,6.02-29.68
		c3.53-15.6,10.46-29.64,20.95-41.71c5.95-6.85,12.52-13.16,18.93-19.6c12.28-12.36,24.62-24.67,36.99-36.95
		c6.52-6.48,14.35-10.77,23.25-12.99c5.87-1.47,11.81-2.27,17.94-1.35c13.61,2.05,25.1,7.9,33.91,18.56
		c5.83,7.06,9.59,15.14,10.94,24.25C479.47,352.83,479.78,355.56,480,357.21z M338.94,447.88c3.62-0.72,6.9-1.46,10.21-2.01
		c6.7-1.1,13.35-2.37,19.76-4.68c10.38-3.75,19.43-9.62,27.23-17.39c11.88-11.83,23.74-23.69,35.59-35.56
		c4.8-4.8,9.66-9.55,14.32-14.49c7-7.42,7.24-19.31,2.87-26.84c-4.59-7.9-11.65-11.85-20.61-11.9c-6.62-0.04-12.26,2.79-16.99,7.55
		c-16.05,16.14-32.19,32.2-48.27,48.32c-6.89,6.9-12.31,14.81-16.05,23.84c-2.64,6.39-4.24,13.05-5.42,19.84
		C340.82,438.91,339.87,443.24,338.94,447.88z"/>
	<path d="M199.56,218.97c-0.19-22.72,17.86-42.41,41.85-42.5c23.46-0.08,42.12,18.09,42.28,41.8c0.16,23.6-18.26,41.97-41.65,42.29
		C218.11,260.89,199.77,241.28,199.56,218.97z M241.63,232.59c7.89,0.01,14.25-6.29,14.25-14.11c0-7.55-6.39-13.91-13.91-14.08
		c-8.53-0.19-14.46,7-14.51,13.94C227.41,226.14,233.95,232.83,241.63,232.59z"/>
	<path d="M254.36,368.61c-17.29,0-34.58-0.05-51.86,0.02c-7.58,0.03-14.24-7.09-13.5-14.87c0.56-5.85,4-10.84,11.41-12.66
		c1.53-0.38,3.14-0.59,4.72-0.59c32.94-0.03,65.88-0.09,98.82,0.03c6.16,0.02,11.28,2.48,14.2,8.37c3.02,6.11,1.01,13.55-4.7,17.37
		c-2.28,1.53-4.72,2.35-7.5,2.35C288.75,368.59,271.56,368.61,254.36,368.61z"/>
	<path d="M366.34,242.65c14.62,0,29.24,0.16,43.85-0.08c6.02-0.1,11.82,5.51,12.94,10.56c1.74,7.81-2.63,14.85-10.92,17.06
		c-1.43,0.38-2.96,0.58-4.44,0.58c-27.55,0.03-55.1,0.05-82.65,0.01c-4.91-0.01-9.51-1.13-12.95-5c-3.42-3.86-4.68-8.38-3.07-13.3
		c1.68-5.15,5.26-8.57,10.72-9.63c1.41-0.28,2.89-0.2,4.34-0.2c14.06-0.01,28.11-0.01,42.17-0.01
		C366.34,242.63,366.34,242.64,366.34,242.65z"/>
	<path d="M366.05,193.21c14.06,0,28.11-0.02,42.17,0.01c4.2,0.01,8.05,1.05,11.12,4.18c4.06,4.15,5.26,9.06,3.36,14.46
		c-1.82,5.16-5.66,8.26-11.13,9.13c-1.47,0.23-2.98,0.31-4.47,0.31c-27.69,0.02-55.38,0.02-83.07,0.01c-4.91,0-9.25-1.36-12.41-5.38
		c-3.16-4.02-4.1-8.56-2.27-13.33c2.01-5.24,5.88-8.47,11.61-9.12c1.48-0.17,2.99-0.26,4.48-0.26
		C338.97,193.2,352.51,193.21,366.05,193.21z"/>
	<path d="M190.42,303.09c0-4.8,2.01-8.29,5.25-11.12c7.96-6.97,17.09-11.66,27.39-14.17c3.85-0.94,7.71-1.45,11.66-1.41
		c5.99,0.06,12.02-0.3,17.97,0.19c9.26,0.75,17.92,3.8,25.78,8.76c3.5,2.21,6.92,4.69,9.91,7.54c4.35,4.13,5.9,9.24,3.39,15.07
		c-2.4,5.59-6.75,8.53-12.74,8.8c-3.42,0.16-6.43-1.22-9.18-3.32c-2.66-2.04-5.41-4.02-8.33-5.65c-4.14-2.32-8.7-3.34-13.48-3.28
		c-4.07,0.05-8.15,0.1-12.22-0.01c-8.04-0.2-14.9,2.71-20.97,7.74c-2.63,2.18-5.35,4.07-8.9,4.4c-5.41,0.5-9.71-1.45-12.9-5.8
		C191.29,308.44,190.3,305.74,190.42,303.09z"/>
	<path d="M226.21,389.95c7.21,0,14.43-0.12,21.63,0.07c2.47,0.06,5.13,0.44,7.35,1.45c5.09,2.31,7.91,6.54,8.09,12.17
		c0.18,5.59-2.51,9.74-7.27,12.57c-2.32,1.38-4.93,1.82-7.56,1.83c-14.8,0.05-29.6,0.06-44.4,0.01
		c-7.95-0.03-13.41-4.54-14.98-12.28c-0.7-3.43,0.47-6.53,2.25-9.31c3.09-4.83,7.85-6.53,13.38-6.5c0.09,0,0.19,0,0.28,0
		C212.06,389.95,219.14,389.95,226.21,389.95z"/>
	<path class="st0" d="M338.94,447.88c0.92-4.64,1.87-8.97,2.63-13.34c1.18-6.79,2.78-13.45,5.42-19.84
		c3.74-9.03,9.16-16.94,16.05-23.84c16.08-16.11,32.22-32.17,48.27-48.32c4.73-4.75,10.37-7.58,16.99-7.55
		c8.96,0.05,16.02,4.01,20.61,11.9c4.37,7.53,4.13,19.42-2.87,26.84c-4.66,4.94-9.52,9.69-14.32,14.49
		c-11.85,11.86-23.71,23.73-35.59,35.56c-7.81,7.77-16.85,13.64-27.23,17.39c-6.4,2.31-13.06,3.58-19.76,4.68
		C345.84,446.42,342.57,447.16,338.94,447.88z"/>
	<path class="st2" d="M241.63,232.59c-7.68,0.25-14.23-6.45-14.17-14.25c0.05-6.95,5.98-14.14,14.51-13.94
		c7.51,0.17,13.91,6.53,13.91,14.08C255.88,226.3,249.53,232.59,241.63,232.59z"/>
</g>
</svg>
