<svg width="53" height="54" viewBox="0 0 53 54" fill="none" xmlns="http://www.w3.org/2000/svg">
<path d="M26.4132 0.349404C40.9467 0.387483 52.724 12.2633 52.7091 26.8625C52.6943 41.5065 40.8479 53.3806 26.2946 53.3409C11.7265 53.3012 -0.0639518 41.3741 0.000261045 26.7433C0.0644739 12.1258 11.8879 0.309669 26.4115 0.347748L26.4132 0.349404Z" fill="#E3E3E3"/>
<path d="M10.6991 19.1061C10.7057 16.9902 11.4005 15.2087 12.772 13.7005C13.3779 13.0349 14.0085 12.3909 14.6572 11.7683C15.3899 11.0631 16.0321 11.0548 16.7614 11.7766C18.5051 13.5001 20.2339 15.2402 21.9479 16.9918C22.7267 17.7882 22.702 18.4306 21.9051 19.2484C20.9748 20.2054 20.0215 21.1375 19.0879 22.0911C17.8679 23.3362 17.7674 24.6094 18.8031 26.0166C21.2514 29.3461 24.1657 32.2053 27.5229 34.5994C28.7923 35.505 30.1013 35.3957 31.2209 34.2997C32.1528 33.3875 33.0435 32.4355 33.9623 31.5116C34.8695 30.5994 35.4408 30.5795 36.3283 31.4636C38.0208 33.1507 39.7052 34.8461 41.3764 36.553C42.2326 37.4272 42.2194 37.9835 41.3649 38.8643C40.1744 40.0911 38.9775 41.303 37.331 41.9354C34.9469 42.851 32.6303 42.4586 30.3845 41.5116C21.2613 37.6656 14.7988 31.1722 11.2013 21.866C11.0119 21.3759 10.8703 20.861 10.7748 20.3445C10.6958 19.9206 10.7172 19.4769 10.6991 19.1061Z" fill="black"/>
</svg>
