<?xml version="1.0" encoding="utf-8"?>
<!-- Generator: Adobe Illustrator 27.3.1, SVG Export Plug-In . SVG Version: 6.00 Build 0)  -->
<svg version="1.1" id="Camada_1" xmlns="http://www.w3.org/2000/svg" xmlns:xlink="http://www.w3.org/1999/xlink" x="0px" y="0px"
	 viewBox="0 0 600 600" style="enable-background:new 0 0 600 600;" xml:space="preserve">
<style type="text/css">
	.st0{fill:#730071;}
	.st1{fill:#FFC700;}
	.st2{fill:#FFFFFF;}
</style>
<g>
	<circle class="st1" cx="300" cy="300" r="300"/>
</g>
<g>
	<g>
		<path d="M212.64,287.41c27.39-0.07,49.82,22.17,49.95,49.52c0.13,27.75-22.14,50.27-49.76,50.32
			c-27.48,0.05-49.77-22.1-49.86-49.55C162.87,309.76,184.88,287.48,212.64,287.41z"/>
		<path class="st2" d="M205.5,296.9c12.56-0.03,22.85,10.17,22.91,22.71c0.06,12.73-10.15,23.05-22.82,23.08
			c-12.6,0.02-22.83-10.14-22.87-22.72C182.68,307.15,192.77,296.93,205.5,296.9z"/>
		<path class="st2" d="M237.15,327.19c8.5-0.02,15.47,6.89,15.51,15.38c0.04,8.62-6.87,15.61-15.45,15.62
			c-8.53,0.02-15.46-6.86-15.48-15.39C221.7,334.13,228.53,327.21,237.15,327.19z"/>
	</g>
	<g>
		<path d="M367.25,287.41c27.39-0.07,49.82,22.17,49.95,49.52c0.13,27.75-22.14,50.27-49.76,50.32
			c-27.48,0.05-49.77-22.1-49.86-49.55C317.48,309.76,339.49,287.48,367.25,287.41z"/>
		<path class="st2" d="M360.11,296.9c12.56-0.03,22.85,10.17,22.91,22.71c0.06,12.73-10.15,23.05-22.82,23.08
			c-12.6,0.02-22.83-10.14-22.87-22.72C337.29,307.15,347.38,296.93,360.11,296.9z"/>
		<path class="st2" d="M391.76,327.19c8.5-0.02,15.47,6.89,15.51,15.38c0.04,8.62-6.87,15.61-15.45,15.62
			c-8.53,0.02-15.46-6.86-15.48-15.39C376.31,334.13,383.14,327.21,391.76,327.19z"/>
	</g>
</g>
<path class="st2" d="M486.78,215.7l-25.53-63.44c-5.48-13.62-24.76-13.62-30.24,0l-26.07,64.78h0.05
	c-2.19,5.27-3.41,11.05-3.41,17.11c0,24.63,19.97,44.6,44.6,44.6c24.63,0,44.6-19.97,44.6-44.6
	C490.78,227.57,489.34,221.33,486.78,215.7z"/>
<path d="M391.75,505.53c-0.1-0.79-2.64-19.65-15.62-38.55c-11.8-17.19-34.67-37.52-76.88-38.04c-0.26-0.05-0.52-0.08-0.79-0.09
	c-43.91-1.6-68.08,18.57-80.62,35.77c-13.51,18.52-16.59,37.3-16.71,38.09c-0.51,3.27,1.72,6.33,4.98,6.85
	c0.16,0.03,0.33,0.05,0.49,0.06c3.08,0.24,5.88-1.93,6.38-5.03c0.03-0.17,2.87-17.08,14.83-33.27
	c15.29-20.71,37.99-30.97,67.49-30.54c0.44,0.1,0.89,0.15,1.36,0.15c30.85-0.25,54.17,10.68,69.32,32.46
	c11.49,16.53,13.85,33.51,13.87,33.68c0.37,2.86,2.71,4.99,5.48,5.21c0.4,0.03,0.82,0.02,1.23-0.03
	C389.85,511.82,392.17,508.81,391.75,505.53z"/>
</svg>
